<svg width="45" height="45" viewBox="0 0 45 45" fill="none" xmlns="http://www.w3.org/2000/svg">
<path d="M21.9375 19.125H25.3125C25.6874 19.125 25.875 18.9374 25.875 18.5625C25.875 18.1876 25.6874 18 25.3125 18H21.9375C21.5626 18 21.375 18.1876 21.375 18.5625C21.375 18.9374 21.5626 19.125 21.9375 19.125Z" fill="#303133"/>
<path d="M25.3125 22.5H21.9375C21.5626 22.5 21.375 22.3124 21.375 21.9375C21.375 21.5626 21.5626 21.375 21.9375 21.375H25.3125C25.6874 21.375 25.875 21.5626 25.875 21.9375C25.875 22.3124 25.6874 22.5 25.3125 22.5Z" fill="#303133"/>
<path d="M25.3125 25.875H21.9375C21.5626 25.875 21.375 25.6874 21.375 25.3125C21.375 24.9376 21.5626 24.75 21.9375 24.75H25.3125C25.6874 24.75 25.875 24.9376 25.875 25.3125C25.875 25.6874 25.6874 25.875 25.3125 25.875Z" fill="#303133"/>
<path fill-rule="evenodd" clip-rule="evenodd" d="M29.092 14.783C28.9865 14.6777 28.8517 14.625 28.6875 14.625H16.3125C16.1481 14.625 16.0133 14.6777 15.908 14.783C15.8027 14.8885 15.75 15.0233 15.75 15.1875V29.8125C15.75 29.9769 15.8026 30.1117 15.908 30.217C16.0135 30.3223 16.1483 30.375 16.3125 30.375H28.6875C28.8519 30.375 28.9867 30.3224 29.092 30.217C29.1973 30.1115 29.25 29.9767 29.25 29.8125V15.1875C29.25 15.0231 29.1973 14.8883 29.092 14.783ZM16.875 29.25V15.75H18.5625V29.25H16.875ZM28.125 29.25H19.6875V15.75H28.125V29.25Z" fill="#303133"/>
</svg>
