<svg width="45" height="45" viewBox="0 0 45 45" fill="none" xmlns="http://www.w3.org/2000/svg">
<mask id="path-2-inside-1_1046_1180" fill="white">
<path fill-rule="evenodd" clip-rule="evenodd" d="M27.8333 21.1667V17.1667H23.8333C23.8333 15.6939 22.6394 14.5 21.1667 14.5C19.6939 14.5 18.5 15.6939 18.5 17.1667L14.5 17.1667V22.5H15.833C16.5694 22.5 17.1663 23.097 17.1663 23.8333C17.1663 24.5697 16.5694 25.1667 15.833 25.1667H14.5V30.5H27.8333V26.5C29.3061 26.5 30.5 25.3061 30.5 23.8333C30.5 22.3606 29.3061 21.1667 27.8333 21.1667Z"/>
</mask>
<path d="M27.8333 17.1667H29.0333V15.9667H27.8333V17.1667ZM27.8333 21.1667H26.6333V22.3667H27.8333V21.1667ZM23.8333 17.1667H22.6333V18.3667H23.8333V17.1667ZM18.5 17.1667V18.3667H19.7V17.1667H18.5ZM14.5 17.1667L14.5 15.9667L13.3 15.9667V17.1667H14.5ZM14.5 22.5H13.3V23.7H14.5V22.5ZM14.5 25.1667V23.9667H13.3V25.1667H14.5ZM14.5 30.5H13.3V31.7H14.5V30.5ZM27.8333 30.5V31.7H29.0333V30.5H27.8333ZM27.8333 26.5V25.3H26.6333V26.5H27.8333ZM26.6333 17.1667V21.1667H29.0333V17.1667H26.6333ZM23.8333 18.3667H27.8333V15.9667H23.8333V18.3667ZM21.1667 15.7C21.9767 15.7 22.6333 16.3566 22.6333 17.1667H25.0333C25.0333 15.0312 23.3022 13.3 21.1667 13.3V15.7ZM19.7 17.1667C19.7 16.3566 20.3566 15.7 21.1667 15.7V13.3C19.0312 13.3 17.3 15.0312 17.3 17.1667H19.7ZM14.5 18.3667L18.5 18.3667V15.9667L14.5 15.9667L14.5 18.3667ZM15.7 22.5V17.1667H13.3V22.5H15.7ZM14.5 23.7H15.833V21.3H14.5V23.7ZM15.833 23.7C15.9066 23.7 15.9663 23.7597 15.9663 23.8333H18.3663C18.3663 22.4342 17.2321 21.3 15.833 21.3V23.7ZM15.9663 23.8333C15.9663 23.907 15.9066 23.9667 15.833 23.9667V26.3667C17.2321 26.3667 18.3663 25.2325 18.3663 23.8333H15.9663ZM15.833 23.9667H14.5V26.3667H15.833V23.9667ZM15.7 30.5V25.1667H13.3V30.5H15.7ZM27.8333 29.3H14.5V31.7H27.8333V29.3ZM26.6333 26.5V30.5H29.0333V26.5H26.6333ZM29.3 23.8333C29.3 24.6434 28.6434 25.3 27.8333 25.3V27.7C29.9688 27.7 31.7 25.9688 31.7 23.8333H29.3ZM27.8333 22.3667C28.6434 22.3667 29.3 23.0233 29.3 23.8333H31.7C31.7 21.6978 29.9688 19.9667 27.8333 19.9667V22.3667Z" fill="#303133" mask="url(#path-2-inside-1_1046_1180)"/>
</svg>
