<svg width="45" height="45" viewBox="0 0 45 45" fill="none" xmlns="http://www.w3.org/2000/svg">
<path d="M24.4862 14.625L28.3888 16.875L27.6328 18.1935C27.8908 18.4984 28.1252 18.8323 28.3359 19.1953C28.5467 19.5583 28.7225 19.9333 28.8635 20.3203H30.3755V24.8203H28.8635C28.5823 25.6056 28.172 26.3145 27.6328 26.9471L28.3888 28.2656L24.4862 30.5156L23.7302 29.1971C22.9097 29.3494 22.0893 29.3494 21.2692 29.1971L20.5132 30.5156L16.6106 28.2656L17.3666 26.9471C17.097 26.6306 16.8596 26.2937 16.6545 25.9363C16.4493 25.5789 16.2765 25.2069 16.1358 24.8203H14.6238V20.3203H16.1358C16.4171 19.5351 16.8273 18.8261 17.3666 18.1935L16.6106 16.875L20.5132 14.625L21.2692 15.9435C22.0897 15.7912 22.91 15.7912 23.7302 15.9435L24.4862 14.625ZM24.908 16.1544L24.6971 16.506L24.3101 17.1917L23.5192 17.0511C22.8393 16.9221 22.1597 16.9221 21.4802 17.0511L20.6893 17.1917L20.0913 16.1544L18.1575 17.2794L18.7374 18.3167L18.2278 18.9146C17.7823 19.4419 17.4423 20.0336 17.208 20.6899L16.9442 21.4459H15.7488V23.6959H16.9267L17.208 24.4519C17.3253 24.7916 17.466 25.1021 17.6298 25.3834C17.7937 25.6646 17.993 25.9459 18.2278 26.2271L18.7374 26.8251L18.1575 27.8623L20.0913 28.9873L20.6893 27.9501L21.4802 28.0907C22.16 28.2197 22.8397 28.2197 23.5192 28.0907L24.3101 27.9501L24.908 28.9873L26.8419 27.8623L26.262 26.8251L26.7716 26.2271C27.2171 25.6879 27.557 25.0961 27.7914 24.4519L28.0552 23.6959H29.2505V21.4459H28.0727L27.7914 20.6899C27.686 20.3734 27.5454 20.0657 27.3695 19.7668C27.1937 19.4679 26.9943 19.1837 26.7716 18.9141L26.262 18.3161L26.8419 17.2789L24.908 16.1544ZM22.5 18.6328C23.6133 18.6564 24.542 19.0402 25.286 19.7842C26.03 20.5282 26.4138 21.4569 26.4375 22.5703C26.4138 23.6837 26.03 24.6124 25.286 25.3564C24.542 26.1004 23.6133 26.4842 22.5 26.5078C21.3866 26.4842 20.4579 26.1004 19.7139 25.3564C18.9699 24.6124 18.5861 23.6837 18.5625 22.5703C18.5861 21.4569 18.9699 20.5282 19.7139 19.7842C20.4579 19.0402 21.3866 18.6564 22.5 18.6328ZM22.5 19.7578C21.7031 19.7814 21.041 20.0569 20.5138 20.5841C19.9865 21.1114 19.7111 21.7734 19.6875 22.5703C19.7111 23.3672 19.9865 24.0293 20.5138 24.5565C21.041 25.0837 21.7031 25.3592 22.5 25.3828C23.2968 25.3592 23.9589 25.0837 24.4862 24.5565C25.0134 24.0293 25.2888 23.3672 25.3125 22.5703C25.2888 21.7734 25.0134 21.1114 24.4862 20.5841C23.9589 20.0569 23.2968 19.7814 22.5 19.7578Z" fill="#303133"/>
</svg>
