<svg width="17" height="15" viewBox="0 0 17 15" fill="none" xmlns="http://www.w3.org/2000/svg">
<path d="M1.75 1.875V13.125H15.25V4.125H8.03875L5.78425 1.875H1.75ZM1.1875 0.75H6.24775L8.5045 3H15.8125C15.9617 3 16.1048 3.05926 16.2102 3.16475C16.3157 3.27024 16.375 3.41332 16.375 3.5625V13.6875C16.375 13.8367 16.3157 13.9798 16.2102 14.0852C16.1048 14.1907 15.9617 14.25 15.8125 14.25H1.1875C1.03832 14.25 0.895242 14.1907 0.789752 14.0852C0.684263 13.9798 0.625 13.8367 0.625 13.6875V1.3125C0.625 1.16332 0.684263 1.02024 0.789752 0.914753C0.895242 0.809263 1.03832 0.75 1.1875 0.75Z" fill="#303133"/>
</svg>
